<?xml version="1.0" encoding="iso-8859-1"?>
<!-- Generator: Adobe Illustrator 19.1.0, SVG Export Plug-In . SVG Version: 6.00 Build 0)  -->
<svg version="1.1" id="Capa_1" xmlns="http://www.w3.org/2000/svg" xmlns:xlink="http://www.w3.org/1999/xlink" x="0px" y="0px"
	 viewBox="0 0 486.757 486.757" style="enable-background:new 0 0 486.757 486.757;" xml:space="preserve">
<g>
	<g>
		<path d="M233.199,374.552c28.232,0,48.032-4.493,59.401-13.478c11.369-8.985,17.053-20.444,17.053-34.375
			c0-10.261-2.476-19.059-7.427-26.394c-4.952-7.335-11.551-13.752-19.798-19.252s-17.781-10.448-28.601-14.846
			c-10.821-4.397-21.91-8.616-33.267-12.656c-11-4.028-21.91-8.518-32.73-13.47c-10.821-4.951-20.447-11.002-28.878-18.153
			c-8.432-7.15-15.305-15.766-20.62-25.848s-7.973-22.458-7.973-37.128c0-26.038,7.791-47.397,23.373-64.076
			c15.582-16.678,38.221-27.222,67.919-31.631V0h45.654v61.6c16.135,0.739,31.169,2.756,45.1,6.051
			c13.931,3.296,24.931,6.415,32.999,9.357l-10.457,42.885c-8.795-3.289-19.792-6.677-32.99-10.163
			c-13.199-3.485-29.701-5.228-49.506-5.228c-21.999,0-38.957,4.216-50.874,12.647c-11.917,8.432-17.876,20.352-17.876,35.76
			c0,8.426,1.743,15.574,5.228,21.442c3.486,5.869,8.527,11.095,15.123,15.677s14.387,8.706,23.373,12.37
			c8.985,3.665,18.978,7.517,29.977,11.556c14.3,5.494,27.868,11.176,40.703,17.045c12.834,5.869,24.108,12.927,33.821,21.174
			c9.712,8.247,17.503,18.055,23.373,29.424c5.869,11.369,8.803,25.121,8.804,41.257c0,26.028-7.883,47.017-23.65,62.968
			c-15.767,15.951-40.149,25.946-73.148,29.986v70.949H221.65v-69.304c-25.669-0.739-46.569-3.581-62.699-8.527
			s-28.229-9.623-36.297-14.032l13.747-41.24c10.999,5.136,24.201,9.903,39.603,14.301
			C191.408,372.353,210.472,374.552,233.199,374.552L233.199,374.552z"/>
	</g>
</g>
</svg>
