<svg xmlns="http://www.w3.org/2000/svg" viewBox="0 0 14 14">
    <g id="Слой_2" data-name="Слой 2">
        <g id="Слой_1-2" data-name="Слой 1">
            <g id="Group_81" data-name="Group 81">
                <path id="Path_219" data-name="Path 219" class="cls-1"
                      d="M13.4,8a3.37,3.37,0,0,0,.1-1A6.49,6.49,0,0,0,7,.5H7A3.37,3.37,0,0,0,6,.6,3.62,3.62,0,0,0,3.9,0,3.91,3.91,0,0,0,0,3.9,3.62,3.62,0,0,0,.6,6,3.37,3.37,0,0,0,.5,7,6.49,6.49,0,0,0,7,13.5H7a3.37,3.37,0,0,0,1-.1,3.65,3.65,0,0,0,2.1.6A3.91,3.91,0,0,0,14,10.1,3.65,3.65,0,0,0,13.4,8Zm-3.3,2a2.68,2.68,0,0,1-1.2.9,5.33,5.33,0,0,1-1.9.3,4.05,4.05,0,0,1-2.1-.5,2.78,2.78,0,0,1-1-.9,1.71,1.71,0,0,1-.4-1.1.79.79,0,0,1,.2-.5A1.42,1.42,0,0,1,4.3,8a.77.77,0,0,1,.5.2,2.29,2.29,0,0,1,.3.5.93.93,0,0,0,.4.6.94.94,0,0,0,.5.4,1.88,1.88,0,0,0,.9.2,2.67,2.67,0,0,0,1.3-.3,1,1,0,0,0,.5-.8.61.61,0,0,0-.3-.6,1.59,1.59,0,0,0-.7-.4c-.3-.1-.7-.2-1.1-.3A6.07,6.07,0,0,1,5,7a2,2,0,0,1-1-.8A2,2,0,0,1,4,3.8,2.58,2.58,0,0,1,5.2,3,5,5,0,0,1,7,2.7a6.06,6.06,0,0,1,1.4.2,3.35,3.35,0,0,1,1,.5,1.33,1.33,0,0,1,.6.7,1.94,1.94,0,0,1,.2.7.72.72,0,0,1-.2.5c-.2.2-.3.2-.6.2a.74.74,0,0,1-.5-.1,2.29,2.29,0,0,1-.3-.5A2,2,0,0,0,8,4.2,1.23,1.23,0,0,0,6.9,4a1.8,1.8,0,0,0-1.1.3.73.73,0,0,0-.4.6c0,.2,0,.3.1.4a1.31,1.31,0,0,0,.4.3c.2.1.3.1.5.2a3.13,3.13,0,0,1,.8.2,4.9,4.9,0,0,1,1.3.4,3.35,3.35,0,0,1,1,.5,2.34,2.34,0,0,1,.7.7,1.65,1.65,0,0,1,.2,1,1.71,1.71,0,0,1-.3,1.4Z"/>
            </g>
        </g>
    </g>
</svg>